<svg width="69" height="72" viewBox="0 0 69 72" fill="none" xmlns="http://www.w3.org/2000/svg">
<g clip-path="url(#clip0_1_164)" filter="url(#filter0_d_1_164)">
<path d="M32.42 3C18.845 3 7.39 12.24 4 24.76H6.67C7.63 21.555 9.185 18.615 11.18 16.035C13.365 17.265 15.895 18.295 18.695 19.085C18.225 20.88 17.84 22.77 17.57 24.76H20.18C20.44 23 20.795 21.32 21.215 19.72C24.3 20.4 27.635 20.805 31.14 20.88V24.76H33.7V20.88C37.205 20.805 40.54 20.405 43.625 19.72C44.045 21.32 44.4 23 44.66 24.76H47.27C47 22.77 46.615 20.88 46.145 19.085C48.945 18.295 51.475 17.265 53.66 16.035C55.655 18.615 57.21 21.555 58.165 24.76H60.84C57.45 12.24 45.995 3 32.42 3ZM31.14 5.715V18.32C27.885 18.245 24.79 17.87 21.94 17.25C24.045 10.955 27.38 6.545 31.14 5.715ZM33.7 5.715C37.46 6.545 40.795 10.955 42.9 17.25C40.05 17.87 36.955 18.245 33.7 18.32V5.715ZM24.91 6.65C22.655 9.03 20.77 12.46 19.41 16.62C16.965 15.93 14.755 15.055 12.865 14.04C16.105 10.595 20.25 8.015 24.91 6.65ZM39.93 6.65C44.59 8.015 48.735 10.595 51.975 14.04C50.085 15.055 47.875 15.93 45.43 16.62C44.07 12.46 42.185 9.03 39.93 6.65ZM4.26 27.32L7.51 37.56H10.49L13.2 29.905L15.91 37.56H18.825L22.135 27.32H19.365L17.275 34.475L14.885 27.32H11.62L9.13 34.355L7.075 27.32H4.26ZM23.48 27.32L26.735 37.56H29.72L32.42 29.905L35.135 37.56H38.05L41.36 27.32H38.585L36.5 34.475L34.11 27.32H30.84L28.35 34.355L26.3 27.32H23.48ZM42.64 27.32L45.9 37.56H48.895L51.61 29.905L54.335 37.56H57.26L60.58 27.32H57.8L55.7 34.475L53.305 27.32H50.025L47.525 34.355L45.46 27.32H42.64ZM51.62 38.84C44.58 38.84 38.82 44.6 38.82 51.64C38.82 58.68 44.58 64.44 51.62 64.44C58.66 64.44 64.42 58.68 64.42 51.64C64.42 44.6 58.66 38.84 51.62 38.84ZM4 40.12C7.39 52.64 18.845 61.88 32.42 61.88C34.855 61.88 37.215 61.57 39.48 61.015C39.05 60.46 38.67 59.865 38.32 59.26C37.935 58.595 37.595 57.905 37.315 57.185C36.175 58.21 34.96 58.895 33.7 59.18V46.555C34.835 46.59 35.965 46.65 37.075 46.745C37.365 45.89 37.715 45.055 38.145 44.275C36.69 44.12 35.2 44.035 33.7 44V40.12H31.14V44C27.685 44.08 24.34 44.475 21.22 45.165C20.795 43.565 20.44 41.885 20.18 40.12H17.57C17.84 42.115 18.23 44.005 18.695 45.8C15.92 46.585 13.38 47.605 11.18 48.845C9.185 46.265 7.63 43.325 6.67 40.12H4ZM51.62 41.4C57.25 41.4 61.86 46.01 61.86 51.64C61.86 57.27 57.25 61.88 51.62 61.88C45.99 61.88 41.38 57.27 41.38 51.64C41.38 46.01 45.99 41.4 51.62 41.4ZM51.62 45.24C48.805 45.24 47.78 47.545 47.78 49.08H50.34C50.34 48.44 50.595 47.8 51.62 47.8C52.26 47.8 52.9 48.055 52.9 49.08C52.9 49.21 52.515 49.72 52.26 49.975C51.49 50.87 50.34 52.28 50.34 54.2H52.9C52.9 53.175 53.54 52.41 54.18 51.64C54.82 50.87 55.46 50.105 55.46 49.08C55.46 46.265 53.155 45.24 51.62 45.24ZM31.14 46.56V59.165C27.38 58.335 24.04 53.925 21.94 47.62C24.83 47 27.93 46.635 31.14 46.56ZM19.41 48.25C20.77 52.415 22.655 55.85 24.91 58.225C20.25 56.865 16.105 54.285 12.86 50.835C14.795 49.795 17.005 48.93 19.41 48.25ZM50.34 55.48V58.04H52.9V55.48H50.34Z" fill="#00486D"/>
</g>
<defs>
<filter id="filter0_d_1_164" x="0" y="0" width="72" height="72" filterUnits="userSpaceOnUse" color-interpolation-filters="sRGB">
<feFlood flood-opacity="0" result="BackgroundImageFix"/>
<feColorMatrix in="SourceAlpha" type="matrix" values="0 0 0 0 0 0 0 0 0 0 0 0 0 0 0 0 0 0 127 0" result="hardAlpha"/>
<feOffset dy="4"/>
<feGaussianBlur stdDeviation="2"/>
<feComposite in2="hardAlpha" operator="out"/>
<feColorMatrix type="matrix" values="0 0 0 0 0 0 0 0 0 0 0 0 0 0 0 0 0 0 0.25 0"/>
<feBlend mode="normal" in2="BackgroundImageFix" result="effect1_dropShadow_1_164"/>
<feBlend mode="normal" in="SourceGraphic" in2="effect1_dropShadow_1_164" result="shape"/>
</filter>
<clipPath id="clip0_1_164">
<rect width="64" height="64" fill="white" transform="translate(4)"/>
</clipPath>
</defs>
</svg>
